# xmcd
# Track frame offsets:
# 150
# 13425
# 37500
# 48900
# 70425
# 85425
# 100425
# 124275
# 137850
# 148500
# 166050
# 181575
# 197925
# 218175
# 232200
# 248475
# 264000
# 294300
# 310162
#
# Disc length: 4377 seconds
# Revision: 0
# Processed by: cddbd v1.4PL0 Copyright (c) Steve Scherf et al.
# Submitted via: VisiTrax 2.9.3.171 - For more info visit www.synapsa.com
#
DISCID=11111713
DTITLE=Various Artist - All that Blues from Sweden ( volume 2 )
DYEAR=1998
DGENRE=Blues
TTITLE0=Little jenny and The Bluebeans - Ask me no questions
TTITLE1=Sven Zetterberg - I don´t blame you
TTITLE2=The Dominators - Boogie in the park
TTITLE3=Baba Blues - Help me through the day
TTITLE4=Knock out Greg and Blue Weather - You ain´t too old
TTITLE5=Al Tehler Blues Band - No more doggin´
TTITLE6=Rolf Wikström - Herdinna, Herdinna
TTITLE7=The Soulmates - Time machine
TTITLE8=Jenny and Björn - He´s got me goin´
TTITLE9=The Instigators - Can´t tjudge nobody
TTITLE10=Jumb 4 joy - Shim sham shimmy
TTITLE11=Lectric Mud - Born in the dark
TTITLE12=Fat city Blues - My love/hate relation with the blues
TTITLE13=Blueass  Bluesband - Let´s have some fun
TTITLE14=Tommy Cougar Blues Band - Cadillac Jane
TTITLE15=Matti Norlin - Separation blues
TTITLE16=Blues Down Town - Blues today
TTITLE17=Bluebirds - Sun turns to rain
TTITLE18=Mr Bo and The Voodoers - I need to do some voo
EXTD=
EXTT0=
EXTT1=
EXTT2=
EXTT3=
EXTT4=
EXTT5=
EXTT6=
EXTT7=
EXTT8=
EXTT9=
EXTT10=
EXTT11=
EXTT12=
EXTT13=
EXTT14=
EXTT15=
EXTT16=
EXTT17=
EXTT18=
PLAYORDER=
